<svg width="54" height="66" viewBox="0 0 54 66" fill="none" xmlns="http://www.w3.org/2000/svg">
<path d="M45.3282 0.0341799C45.0135 0.116709 44.5468 0.379771 44.3108 0.617043C43.9385 0.988425 33.1934 14.9462 32.9994 15.3073C32.475 16.2924 32.5799 17.4427 33.2773 18.2886C33.377 18.4124 34.5726 19.3873 35.9308 20.4602C38.4899 22.477 38.5843 22.5647 38.8413 23.1475C39.1035 23.7356 39.1874 24.5866 39.0615 25.3655C38.9147 26.2475 38.469 27.4236 37.803 28.6873C36.9115 30.374 36.7489 30.5958 31.9191 36.8164L27.3358 42.7328L26.1559 43.9552C23.838 46.364 22.3802 47.5659 21.1478 48.0868C20.6916 48.2829 20.6601 48.288 20.0728 48.288C19.4278 48.288 19.1708 48.2158 18.7828 47.9269C18.6936 47.8599 17.7287 46.7251 16.6484 45.4098C15.5682 44.0945 14.6032 42.9546 14.5089 42.872C13.6541 42.1602 12.3588 42.2582 11.5722 43.0835C11.2942 43.3775 0.575388 57.2631 0.37087 57.5932C-0.216465 58.5526 -0.0958516 59.904 0.659293 60.7293C0.821859 60.9098 5.07479 64.0356 6.01348 64.6649C7.4923 65.6553 10.1091 66.1608 12.7154 65.9544C20.0518 65.3664 28.3637 60.0433 36.5339 50.6865C42.811 43.5013 47.9502 35.5837 50.8659 28.6099C52.7066 24.2101 53.703 20.2177 53.9547 16.2305C54.2116 12.1815 53.3621 8.10657 51.7627 5.72354C51.5004 5.33153 47.4573 0.70473 47.1689 0.467459C46.849 0.199238 46.3822 0.0238637 45.9365 0.00323139C45.7163 -0.00708477 45.4436 0.00838947 45.3282 0.0341799Z" fill="black"/>
</svg>
